HIERARCHY
ROOT Hips
{
	OFFSET 0.00000 0.00000 0.00000
	CHANNELS 6 Xposition Yposition Zposition Zrotation Yrotation Xrotation 
	JOINT LHipJoint
	{
		OFFSET 0 0 0
		CHANNELS 3 Zrotation Yrotation Xrotation
		JOINT LeftHip
		{
			OFFSET 1.40252 -1.71424 0.59123
			CHANNELS 3 Zrotation Yrotation Xrotation
			JOINT LeftKnee
			{
				OFFSET 2.50071 -6.87065 0.00000
				CHANNELS 3 Zrotation Yrotation Xrotation
				JOINT LeftAnkle
				{
					OFFSET 2.50834 -6.89162 0.00000
					CHANNELS 3 Zrotation Yrotation Xrotation
					JOINT LeftToe
					{
						OFFSET 0.21528 -0.59149 1.64448
						CHANNELS 3 Zrotation Yrotation Xrotation
						End Site
						{
							OFFSET 0.00000 -0.00000 0.87921
						}
					}
				}
			}
		}
	}
	JOINT RHipJoint
	{
		OFFSET 0 0 0
		CHANNELS 3 Zrotation Yrotation Xrotation
		JOINT RightHip
		{
			OFFSET -1.53651 -1.71424 0.59123
			CHANNELS 3 Zrotation Yrotation Xrotation
			JOINT RightKnee
			{
				OFFSET -2.45783 -6.75285 0.00000
				CHANNELS 3 Zrotation Yrotation Xrotation
				JOINT RightAnkle
				{
					OFFSET -2.51921 -6.92147 0.00000
					CHANNELS 3 Zrotation Yrotation Xrotation
					JOINT RightToe
					{
						OFFSET -0.21777 -0.59831 1.59676
						CHANNELS 3 Zrotation Yrotation Xrotation
						End Site
						{
							OFFSET -0.00000 -0.00000 0.85779
						}
					}
				}
			}
		}
	}
	JOINT lowerback
	{
		OFFSET 0 0 0
		CHANNELS 3 Zrotation Yrotation Xrotation
		JOINT Chest
		{
			OFFSET 0.02212 2.07622 0.03776
			CHANNELS 3 Zrotation Yrotation Xrotation
			JOINT Chest2
			{
				OFFSET -0.00949 2.08009 -0.00123
				CHANNELS 3 Zrotation Yrotation Xrotation
				JOINT lowerneck
				{
					OFFSET 0 0 0
					CHANNELS 3 Zrotation Yrotation Xrotation
					JOINT Neck
					{
						OFFSET 0.00288 1.67184 0.11155
						CHANNELS 3 Zrotation Yrotation Xrotation
						JOINT Head
						{
							OFFSET -0.02412 1.66997 -0.22040
							CHANNELS 3 Zrotation Yrotation Xrotation
							End Site
							{
								OFFSET -0.01026 1.69043 -0.08683
							}
						}
					}
				}
				JOINT LeftCollar
				{
					OFFSET 0 0 0
					CHANNELS 3 Zrotation Yrotation Xrotation
					JOINT LeftShoulder
					{
						OFFSET 3.97941 0.74048 0.81462
CHANNELS 3 Zrotation Xrotation Yrotation
						JOINT LeftElbow
						{
OFFSET 0 -5.018340 -0.000000
CHANNELS 3 Zrotation Xrotation Yrotation
							JOINT LeftWrist
							{
OFFSET 0 -3.486900 0.000000
CHANNELS 3 Zrotation Xrotation Yrotation
								JOINT lhand
								{
									OFFSET 0 0 0
CHANNELS 3 Zrotation Xrotation Yrotation
									JOINT LFingers
									{
OFFSET 0 -0.767990 0.000000
CHANNELS 3 Zrotation Xrotation Yrotation
										End Site
										{
OFFSET 0 -0.619170 0.000000
										}
									}
								}
								JOINT LThumb
								{
OFFSET 0 0.000000 0.000000
CHANNELS 3 Zrotation Xrotation Yrotation
									End Site
									{
OFFSET 0 -0.628630 0.628630
									}
								}
							}
						}
					}
				}
				JOINT RightCollar
				{
					OFFSET 0 0 0
					CHANNELS 3 Zrotation Yrotation Xrotation
					JOINT RightShoulder
					{
						OFFSET -3.88702 1.02123 0.44091
CHANNELS 3 Zrotation Xrotation Yrotation
						JOINT RightElbow
						{
OFFSET 0 -4.701640 0.000000
CHANNELS 3 Zrotation Xrotation Yrotation
							JOINT RightWrist
							{
OFFSET 0 -3.499110 0.000000
CHANNELS 3 Zrotation Xrotation Yrotation
								JOINT rhand
								{
									OFFSET 0 0 0
CHANNELS 3 Zrotation Xrotation Yrotation
									JOINT RFingers
									{
OFFSET 0 -0.739330 0.000000
CHANNELS 3 Zrotation Xrotation Yrotation
										End Site
										{
OFFSET 0 -0.596070 0.000000
										}
									}
								}
								JOINT RThumb
								{
OFFSET 0 0.000000 0.000000
CHANNELS 3 Zrotation Xrotation Yrotation
									End Site
									{
OFFSET 0 -0.605170 0.605170
									}
								}
							}
						}
					}
				}
			}
		}
	}
}
MOTION
Frames: 16
Frame Time: .0083333
3.4789 17.6736 1.2097 -367.7840 -536.7510 386.0740 0.0000 0.0000 0.0000 -0.5480 -15.0156 -52.1143 4.9775 13.3584 40.7252 -0.3240 -14.2547 -5.6082 1.5315 -7.8133 -22.1484 0.0000 0.0000 0.0000 7.9069 20.2764 -24.6130 -1.7565 -8.3392 23.7492 -0.3219 18.6440 -15.8145 -4.3015 -12.5512 37.7109 -3.6498 -9.5086 -28.9700 1.1509 -13.2101 -7.0875 -1.5352 -7.1058 8.6753 -6.4734 -5.7622 -8.3057 3.3203 -6.9078 20.7406 1.5508 -3.1909 8.1372 0.0000 0.0000 0.0000 8.5948 1.6811 -38.4115 127.3207 -54.0206 91.6716 -15.7823 -38.4188 -48.0926 0.0 0.0 0.0 -7.1250 0.0 0.0 -71.8245 64.3476 43.1642 0.0000 0.0000 0.0000 -71.5468 -17.593 -58.3225 -139.8556 -48.1552 -101.4533 -91.8174 154.4975 21.5258 0.0 0.0 0.0 7.1250 0.0 -0.0 -47.2904 -51.6886 -71.1429
3.2279 17.6916 1.0434 -367.5590 -538.8170 385.4970 0.0000 0.0000 0.0000 1.5103 -16.7788 -50.1669 3.8984 12.0240 35.8170 -0.5642 -15.9479 -3.7623 1.3533 -7.3641 -20.7986 0.0000 0.0000 0.0000 7.2433 19.8967 -23.3444 -1.6305 -8.0500 22.8659 -0.1118 19.5466 -14.6847 -4.3730 -12.6408 38.0384 -2.4184 -8.8214 -28.0870 1.0232 -12.7065 -7.1824 -1.9611 -6.8810 7.8665 -6.1008 -5.8597 -8.1509 3.0598 -7.0933 20.1894 1.3892 -3.2970 7.9095 0.0000 0.0000 0.0000 9.6568 4.5015 -36.2172 128.1148 -53.7281 92.313 -13.6821 -37.8677 -49.962 0.0 0.0 0.0 -7.1250 0.0 0.0 -73.9311 65.7406 47.016 0.0000 0.0000 0.0000 -64.5639 -17.207 -57.4163 -140.2871 -47.8989 -101.7741 -93.3411 157.149 20.9979 0.0 0.0 0.0 7.1250 0.0 -0.0 -51.5593 -54.1598 -76.674
2.9797 17.6978 0.8762 -367.4880 -540.6120 384.6110 0.0000 0.0000 0.0000 3.1373 -18.9864 -48.0033 3.1497 10.9335 32.0560 -0.6313 -15.1455 -0.8200 1.0398 -6.4852 -18.1988 0.0000 0.0000 0.0000 6.6726 18.8827 -22.2433 -1.5931 -7.9615 22.5971 0.1216 20.4670 -13.4032 -4.5076 -12.8069 38.6499 -1.5739 -8.3200 -26.6209 0.9290 -12.2968 -7.3042 -2.1002 -6.7046 6.8416 -5.8294 -5.9082 -7.9713 2.9585 -7.2116 19.8182 1.3060 -3.3562 7.7443 -0.0000 0.0000 0.0000 10.275 7.1597 -34.0601 128.6734 -53.5167 92.7628 -11.3378 -36.4388 -51.3626 0.0 0.0 0.0 -7.1250 0.0 0.0 -75.3096 66.9912 49.9965 -0.0000 0.0000 0.0000 -57.9594 -16.8591 -56.2964 -140.3049 -47.8882 -101.7873 -95.9412 162.7221 20.3963 0.0 0.0 0.0 7.1250 0.0 -0.0 -60.1234 -58.0396 -87.0026
2.7316 17.6966 0.7082 -367.4230 -542.3190 383.6590 0.0000 0.0000 0.0000 3.8077 -20.4661 -46.4441 2.7272 10.2397 29.7566 -0.7191 -15.3238 1.5087 0.7749 -5.6206 -15.6873 0.0000 0.0000 0.0000 6.1631 18.0258 -21.3281 -1.6388 -8.0693 22.9249 0.2856 20.9148 -12.3522 -4.6039 -12.9234 39.0823 -0.0373 -9.8205 -25.0890 1.0905 -11.3988 -7.4745 -2.0521 -4.8801 5.6645 -5.4997 -5.9171 -7.7456 2.8816 -7.2762 19.6118 1.2288 -3.3762 7.6215 -0.0000 -0.0000 0.0000 10.6869 9.5638 -32.0053 129.0146 -53.3853 93.0369 -10.5596 -35.6013 -51.9003 0.0 0.0 0.0 -7.1250 0.0 0.0 -76.0067 67.4226 51.2286 -0.0000 -0.0000 0.0000 -51.6484 -16.3956 -55.0747 -140.1836 -47.9608 -101.6972 -98.1973 167.0013 20.0098 0.0 0.0 0.0 7.1250 0.0 -0.0 -68.8890 -60.7467 -96.9394
2.4808 17.6943 0.5351 -367.3830 -544.1110 382.7090 0.0000 0.0000 0.0000 3.1523 -20.6779 -45.5392 2.5588 9.9440 28.7957 -0.9406 -17.0933 3.4402 0.8475 -5.8718 -16.4129 0.0000 0.0000 0.0000 5.6168 17.5062 -20.6365 -1.7706 -8.3709 23.8465 0.3789 20.9389 -11.5398 -4.6786 -13.0124 39.4150 0.4032 -9.2694 -23.4372 0.9637 -10.8556 -7.7212 -2.0141 -4.6929 4.4866 -5.4462 -5.9743 -7.1888 3.0070 -7.3947 19.5499 1.2670 -3.4162 7.5093 -0.0000 0.0000 0.0000 11.0946 11.794 -30.1642 129.1325 -53.3394 93.1315 -11.9496 -35.7941 -51.4836 0.0 0.0 0.0 -7.1250 0.0 0.0 -75.9559 66.8341 50.3929 -0.0000 0.0000 0.0000 -45.6809 -15.6708 -53.9211 -139.7161 -48.2372 -101.3493 -100.5854 171.3556 19.5434 0.0 0.0 0.0 7.1250 0.0 -0.0 -107.9365 61.7156 79.8476
2.2198 17.6875 0.3522 -367.2640 -546.1050 381.6310 0.0000 0.0000 0.0000 2.3506 -20.8105 -44.3384 2.5264 9.8857 28.6074 -0.9977 -17.5831 3.5527 1.0429 -6.4946 -18.2264 0.0000 0.0000 0.0000 4.9685 17.1062 -20.3813 -2.0385 -8.9459 25.6263 0.5598 21.2653 -10.1565 -4.7395 -13.0842 39.6846 0.9412 -8.5428 -21.7553 0.7882 -10.0762 -7.9791 -2.0418 -4.3865 3.2652 -5.8330 -6.1237 -6.6474 3.3146 -7.5889 19.9191 1.4269 -3.4928 7.5723 -0.0000 0.0000 0.0000 11.1983 13.8549 -28.3893 129.1606 -53.3285 93.154 -16.6696 -37.8204 -50.2104 0.0 0.0 0.0 -7.1250 0.0 0.0 -76.4193 64.8979 48.1496 -0.0000 0.0000 0.0000 -40.2861 -14.8808 -53.0839 -138.7140 -48.8136 -100.5984 -102.6655 174.3892 19.3959 0.0 0.0 0.0 7.1250 0.0 -0.0 -115.1097 60.7338 88.663
1.9492 17.6734 0.1660 -366.9990 -548.1780 380.7290 0.0000 0.0000 0.0000 1.5714 -20.8348 -43.2002 2.6202 10.0532 29.1493 -0.8881 -16.9406 1.8084 1.7987 -8.4336 -24.0390 0.0000 0.0000 0.0000 4.2226 17.0167 -20.8900 -2.4833 -9.8075 28.3555 0.7453 21.4754 -8.5204 -4.7664 -13.1158 39.8036 1.4479 -7.9186 -20.3713 0.8575 -9.4246 -8.1417 -1.9081 -4.1300 2.3472 -5.9824 -6.1926 -6.4143 3.1971 -7.6201 20.3469 1.4160 -3.5129 7.6762 0.0000 0.0000 0.0000 10.6121 15.5656 -26.3497 129.2852 -53.2798 93.2539 -19.5351 -38.8304 -49.0386 0.0 0.0 0.0 -7.1250 0.0 0.0 -76.1795 63.5912 46.0305 0.0000 0.0000 0.0000 -35.4938 -14.8818 -52.2847 -137.0975 -49.6985 -99.3736 -104.465 177.9125 18.4384 0.0 0.0 0.0 7.1250 0.0 -0.0 -122.4135 58.5541 97.2819
1.6743 17.6570 -0.0211 -366.6020 -550.1300 380.1760 0.0000 0.0000 0.0000 1.1543 -21.1320 -42.3091 2.8190 10.3962 30.2694 -0.7052 -15.7401 -0.2585 2.7392 -10.2604 -29.8242 0.0000 0.0000 0.0000 3.3682 16.2347 -22.5901 -3.1141 -10.8775 31.8679 1.0489 21.8373 -5.5481 -4.9252 -13.2990 40.4984 2.0492 -7.3767 -19.3392 1.1006 -8.8554 -8.3513 -1.7249 -3.8942 1.5671 -6.1058 -6.1949 -6.1895 2.9320 -7.5358 20.6942 1.3635 -3.4923 7.7429 0.0000 0.0000 0.0000 9.7097 17.0392 -24.4143 129.4137 -53.2292 93.3569 -21.0548 -39.6178 -48.7603 0.0 0.0 0.0 -7.1250 0.0 0.0 -76.7343 63.0314 45.7167 0.0000 0.0000 0.0000 -31.2235 -15.1021 -51.497 -134.9874 -50.7746 -97.7515 -106.0712 181.081 16.926 0.0 0.0 0.0 7.1250 0.0 -0.0 -129.2163 55.2746 105.3348
1.3976 17.6398 -0.2121 -366.1580 -552.0750 379.8870 0.0000 0.0000 0.0000 0.7898 -21.4518 -41.4900 3.0871 10.8348 31.7247 -0.4814 -14.1143 -2.4287 3.5397 -11.5213 -34.0587 0.0000 0.0000 0.0000 2.3246 15.0572 -25.3114 -3.9887 -12.1453 36.2480 1.3670 22.0209 -1.2764 -5.2187 -13.6259 41.7592 2.6925 -6.7905 -18.7729 1.3506 -8.2161 -8.4594 -1.6224 -3.6106 1.1311 -6.3548 -6.2420 -5.9738 2.8472 -7.5456 20.8141 1.3814 -3.5188 7.7532 -0.0000 0.0000 0.0000 8.8675 18.1177 -22.8763 129.5920 -53.1587 93.4997 -20.5448 -39.8783 -49.7287 0.0 0.0 0.0 -7.1250 0.0 0.0 -78.1061 63.5383 47.7799 -0.0000 0.0000 0.0000 -27.299 -15.6685 -50.9813 -132.3965 -51.982 -95.727 -106.3882 175.8895 18.7532 0.0 0.0 0.0 7.1250 0.0 -0.0 -126.1024 58.0759 102.4705
1.1170 17.6133 -0.4122 -365.5940 -554.1660 379.4760 0.0000 0.0000 0.0000 0.3295 -21.6798 -40.1691 3.2440 11.0800 32.5501 -0.2783 -12.6720 -4.5528 4.0900 -12.2792 -36.7269 0.0000 0.0000 0.0000 1.4137 13.7454 -28.4634 -5.1046 -13.5007 41.2728 1.4653 21.1733 3.9499 -5.5981 -14.0273 43.3467 3.4589 -6.1439 -17.9835 1.5668 -7.4927 -8.5997 -1.5971 -3.2937 0.5316 -6.5603 -6.2941 -5.4645 2.7686 -7.5891 20.6915 1.4014 -3.5631 7.6305 -0.0000 0.0000 0.0000 8.2063 19.404 -21.7243 130.0256 -52.9852 93.8463 -17.8698 -39.373 -51.7825 0.0 0.0 0.0 -7.1250 0.0 0.0 -80.2554 65.0443 52.0651 -0.0000 0.0000 0.0000 -24.0088 -15.9128 -50.6838 -129.0904 -53.3558 -93.0977 -105.3498 163.4043 24.244 0.0 0.0 0.0 7.1250 0.0 -0.0 -109.7736 65.4071 86.3818
0.8374 17.5820 -0.6074 -365.0390 -556.0380 379.0440 0.0000 0.0000 0.0000 -0.1815 -22.0355 -38.6121 3.2952 11.1583 32.8155 -0.1009 -11.4066 -6.4233 4.5834 -12.8986 -38.9903 0.0000 0.0000 0.0000 0.6073 12.1871 -32.1294 -6.5213 -14.9152 47.0397 1.2179 19.1440 8.8626 -5.6091 -14.0386 43.3922 4.5620 -5.3883 -16.3837 1.4563 -6.5045 -9.3252 -1.9713 -2.8655 -1.1812 -6.4453 -6.5250 -4.2498 2.6341 -7.8990 20.7916 1.3517 -3.6962 7.4531 -0.0000 0.0000 0.0000 8.1833 21.5124 -21.194 130.3268 -52.8628 94.0866 -16.8811 -39.6319 -52.7216 0.0 0.0 0.0 -7.1250 0.0 0.0 -81.5477 65.6329 54.1822 -0.0000 0.0000 0.0000 -21.0926 -14.6627 -51.011 -125.0672 -54.8011 -89.839 -104.6912 154.872 26.8186 0.0 0.0 0.0 7.1250 0.0 -0.0 -77.1842 -67.4995 -99.8838
0.5596 17.5405 -0.7867 -364.6120 -557.5490 378.3970 0.0000 0.0000 0.0000 -0.9104 -22.6260 -36.7009 3.2543 11.0957 32.6034 0.0675 -10.0277 -8.1030 5.0544 -13.4448 -41.0571 0.0000 0.0000 0.0000 0.0330 10.5388 -35.6260 -8.0768 -16.1754 52.8387 0.7685 16.2293 11.8700 -5.6153 -14.0449 43.4174 5.8200 -4.6212 -13.7686 0.9903 -5.3266 -10.5604 -2.7448 -2.3909 -4.0165 -6.2653 -6.9946 -2.4706 2.6667 -8.5416 21.2491 1.3415 -3.9436 7.3146 0.0000 0.0000 0.0000 8.7849 24.1618 -21.2764 130.3735 -52.8438 94.1238 -15.8822 -39.3802 -53.2451 0.0 0.0 0.0 -7.1250 0.0 0.0 -82.0583 66.0952 55.337 0.0000 0.0000 0.0000 -18.3474 -11.6359 -52.1587 -120.6259 -56.1408 -86.1792 -104.0213 148.0851 26.692 0.0 0.0 0.0 7.1250 0.0 -0.0 -75.1419 -67.0302 -97.9603
0.2867 17.4885 -0.9506 -364.3000 -558.6910 377.4450 0.0000 0.0000 0.0000 -2.0424 -22.8508 -34.5396 3.1505 10.9347 32.0600 0.2246 -9.1189 -9.8944 5.4842 -13.9091 -42.8746 0.0000 0.0000 0.0000 -0.2478 8.7210 -38.8809 -9.7636 -17.2747 58.6952 0.3475 12.9121 12.9456 -5.4591 -13.8828 42.7702 6.5965 -4.1420 -11.6689 0.7335 -4.6293 -10.9364 -3.2328 -2.1601 -5.6087 -6.1042 -7.3578 -1.6477 2.7626 -9.0745 21.2408 1.3356 -4.1672 7.1900 -0.0000 -0.0000 0.0000 9.1547 25.4334 -20.9812 130.1647 -52.9289 93.9573 -16.4061 -39.9937 -53.4399 0.0 0.0 0.0 -7.1250 0.0 0.0 -82.7638 65.9783 55.8903 -0.0000 -0.0000 0.0000 -16.0907 -9.8868 -53.463 -115.5124 -57.3918 -81.9009 -101.8788 137.9555 27.1451 0.0 0.0 0.0 7.1250 0.0 -0.0 -66.9840 -65.4942 -89.3707
0.0253 17.4371 -1.1075 -364.2210 -559.3570 376.4140 0.0000 0.0000 0.0000 -3.5615 -22.7938 -32.3912 2.9786 10.6603 31.1426 0.3739 -8.6890 -11.6552 5.9562 -14.3858 -44.8058 0.0000 0.0000 0.0000 -0.3001 6.6643 -41.7059 -11.3587 -18.1062 63.9412 0.1293 10.0153 11.8879 -4.8282 -13.1877 40.0753 6.8855 -3.9550 -10.5314 0.6729 -4.4668 -10.5266 -3.3880 -2.1531 -5.7934 -6.2910 -7.5561 -1.5237 3.0692 -9.4459 20.5117 1.4430 -4.3690 6.9728 0.0000 0.0000 0.0000 9.1836 25.4629 -20.2724 129.9165 -53.0291 93.7591 -16.1857 -39.6537 -53.7239 0.0 0.0 0.0 -7.1250 0.0 0.0 -83.2395 66.1212 56.5718 0.0000 0.0000 0.0000 -15.6818 -8.9587 -54.9753 -107.7689 -58.7727 -75.3249 -98.0499 125.4465 27.5941 0.0 0.0 0.0 7.1250 0.0 -0.0 -55.2512 -61.6978 -76.7893
-0.2250 17.3867 -1.2573 -364.3880 -559.5280 375.2910 0.0000 0.0000 0.0000 -5.4660 -22.1429 -30.6703 2.8535 10.4540 30.4599 0.5374 -9.2337 -13.6577 6.2902 -14.7038 -46.1358 0.0000 0.0000 0.0000 -0.1230 4.1993 -44.1865 -12.8291 -18.7196 68.5938 0.0167 7.0240 9.6153 -4.2274 -12.4570 37.3684 6.8498 -3.9900 -9.4462 0.6339 -4.5696 -10.1242 -3.3547 -2.2504 -5.9549 -6.5828 -7.7239 -1.2605 3.4748 -9.7830 19.6786 1.6080 -4.5572 6.7102 0.0000 0.0000 0.0000 9.2819 25.4314 -19.7593 129.7683 -53.0885 93.6407 -16.3078 -39.6088 -53.9321 0.0 0.0 0.0 -7.1250 0.0 0.0 -83.7477 66.1332 57.1088 0.0000 0.0000 0.0000 -16.926 -7.1299 -56.5235 -96.6893 -59.8302 -65.7898 -90.2748 104.8481 28.179 0.0 0.0 0.0 7.1250 0.0 -0.0 -39.3062 -51.5154 -58.0536
-0.4737 17.3369 -1.4047 -364.6340 -559.2680 374.4290 0.0000 0.0000 0.0000 -7.3839 -20.9197 -29.7710 2.7812 10.3322 30.0592 0.6891 -10.8950 -15.5940 6.4301 -14.8325 -46.6843 0.0000 0.0000 0.0000 0.4116 1.7788 -46.1242 -13.7385 -19.0328 71.4042 -0.0050 4.2435 6.2512 -3.2334 -11.0636 32.4947 6.9112 -4.0704 -8.7077 0.5116 -4.7245 -9.8166 -3.4800 -2.3680 -6.0602 -6.9364 -7.9523 -1.0554 3.9455 -10.1886 19.0919 1.7939 -4.7674 6.5521 -0.0000 -0.0000 0.0000 9.7817 25.0721 -19.6865 129.4318 -53.2221 93.3714 -16.5147 -40.0871 -53.9979 0.0 0.0 0.0 -7.1250 0.0 0.0 -83.9996 66.0826 57.2986 -0.0000 -0.0000 0.0000 -18.5435 -5.3093 -58.1436 -84.2203 -59.8734 -54.9968 -88.0598 -75.5505 -27.4376 0.0 0.0 0.0 7.1250 0.0 -0.0 -36.7162 -47.9032 -54.9026
